<svg width="16" height="17" viewBox="0 0 16 17" fill="none" xmlns="http://www.w3.org/2000/svg">
<g clip-path="url(#clip0_202_557)">
<path d="M13.7143 0.499878H4.14287C4.06429 0.499878 4.00001 0.564164 4.00001 0.642735V1.64274C4.00001 1.72131 4.06429 1.78559 4.14287 1.78559H13V14.0713C13 14.1499 13.0643 14.2142 13.1429 14.2142H14.1429C14.2214 14.2142 14.2857 14.1499 14.2857 14.0713V1.07131C14.2857 0.755235 14.0304 0.499878 13.7143 0.499878ZM11.4286 2.78559H2.28572C1.96965 2.78559 1.71429 3.04095 1.71429 3.35702V12.8338C1.71429 12.9856 1.77501 13.1302 1.88215 13.2374L4.97679 16.332C5.01608 16.3713 5.06072 16.4035 5.10894 16.4302V16.4642H5.18394C5.24644 16.4874 5.31251 16.4999 5.38037 16.4999H11.4286C11.7447 16.4999 12 16.2445 12 15.9284V3.35702C12 3.04095 11.7447 2.78559 11.4286 2.78559ZM5.10715 14.6463L3.56965 13.107H5.10715V14.6463ZM10.7143 15.2142H6.25001V12.6784C6.25001 12.2838 5.93037 11.9642 5.53572 11.9642H3.00001V4.07131H10.7143V15.2142Z" fill="#3F3F46"/>
</g>
<defs>
<clipPath id="clip0_202_557">
<rect width="16" height="16" fill="white" transform="translate(0 0.5)"/>
</clipPath>
</defs>
</svg>
