<svg width="9" height="9" viewBox="0 0 9 9" fill="none" xmlns="http://www.w3.org/2000/svg">
<path d="M7.84056 2.44518C7.93259 2.14828 7.96212 1.83554 7.92727 1.52666C7.89241 1.21779 7.79394 0.919483 7.63806 0.65056C7.61163 0.604776 7.5736 0.566758 7.52782 0.540329C7.48203 0.513901 7.43009 0.499993 7.37722 0.500005C7.0265 0.499271 6.68046 0.580576 6.36677 0.737425C6.05307 0.894274 5.7804 1.12232 5.57056 1.40334H4.66722C4.45738 1.12232 4.18471 0.894274 3.87101 0.737425C3.55731 0.580576 3.21128 0.499271 2.86056 0.500005C2.80769 0.499993 2.75575 0.513901 2.70996 0.540329C2.66417 0.566758 2.62615 0.604776 2.59972 0.65056C2.44384 0.919483 2.34536 1.21779 2.31051 1.52666C2.27566 1.83554 2.30518 2.14828 2.39722 2.44518C2.21118 2.7699 2.11153 3.1369 2.10778 3.51111V3.81223C2.10841 4.32171 2.29336 4.81375 2.62848 5.19751C2.9636 5.58126 3.42625 5.8308 3.93101 5.90005C3.72497 6.1637 3.61314 6.48873 3.61333 6.82333V7.12445H2.71C2.47042 7.12445 2.24065 7.02927 2.07125 6.85987C1.90184 6.69046 1.80667 6.46069 1.80667 6.22111C1.80667 6.0234 1.76772 5.82762 1.69206 5.64496C1.6164 5.4623 1.5055 5.29633 1.3657 5.15652C1.2259 5.01672 1.05992 4.90582 0.877262 4.83016C0.6946 4.7545 0.498823 4.71556 0.301111 4.71556C0.221251 4.71556 0.144663 4.74728 0.0881934 4.80375C0.0317241 4.86022 0 4.93681 0 5.01667C0 5.09653 0.0317241 5.17312 0.0881934 5.22959C0.144663 5.28606 0.221251 5.31778 0.301111 5.31778C0.54069 5.31778 0.770456 5.41295 0.939864 5.58236C1.10927 5.75177 1.20444 5.98153 1.20444 6.22111C1.20444 6.62041 1.36307 7.00335 1.64541 7.2857C1.92776 7.56805 2.3107 7.72667 2.71 7.72667H3.61333V8.32889C3.61333 8.40875 3.64506 8.48534 3.70153 8.54181C3.758 8.59828 3.83458 8.63 3.91444 8.63C3.9943 8.63 4.07089 8.59828 4.12736 8.54181C4.18383 8.48534 4.21556 8.40875 4.21556 8.32889V6.82333C4.21556 6.58376 4.31073 6.35399 4.48014 6.18458C4.64954 6.01517 4.87931 5.92 5.11889 5.92C5.35847 5.92 5.58823 6.01517 5.75764 6.18458C5.92705 6.35399 6.02222 6.58376 6.02222 6.82333V8.32889C6.02222 8.40875 6.05395 8.48534 6.11041 8.54181C6.16688 8.59828 6.24347 8.63 6.32333 8.63C6.40319 8.63 6.47978 8.59828 6.53625 8.54181C6.59272 8.48534 6.62444 8.40875 6.62444 8.32889V6.82333C6.62464 6.48873 6.5128 6.1637 6.30677 5.90005C6.81152 5.8308 7.27418 5.58126 7.6093 5.19751C7.94441 4.81375 8.12937 4.32171 8.13 3.81223V3.51111C8.12625 3.1369 8.0266 2.7699 7.84056 2.44518ZM7.52778 3.81223C7.52778 4.21152 7.36916 4.59447 7.08681 4.87681C6.80446 5.15916 6.42152 5.31778 6.02222 5.31778H4.21556C3.81626 5.31778 3.43331 5.15916 3.15097 4.87681C2.86862 4.59447 2.71 4.21152 2.71 3.81223V3.51111C2.71369 3.21001 2.80384 2.91632 2.96971 2.66499C3.00063 2.62424 3.02066 2.57628 3.0279 2.52563C3.03514 2.47499 3.02937 2.42334 3.01111 2.37555C2.93268 2.17328 2.89493 1.95752 2.90004 1.74063C2.90514 1.52374 2.95299 1.31 3.04085 1.11164C3.28727 1.13815 3.52457 1.21978 3.73516 1.35048C3.94574 1.48119 4.12421 1.65761 4.25733 1.86667C4.28446 1.90909 4.32179 1.94403 4.36592 1.9683C4.41004 1.99256 4.45954 2.00537 4.50989 2.00556H5.72751C5.77805 2.00556 5.82778 1.99284 5.87212 1.96857C5.91645 1.9443 5.95397 1.90925 5.9812 1.86667C6.1143 1.65759 6.29276 1.48115 6.50335 1.35045C6.71394 1.21974 6.95125 1.13812 7.19768 1.11164C7.28542 1.31005 7.33314 1.52382 7.33812 1.74071C7.34309 1.95759 7.30522 2.17333 7.22667 2.37555C7.20847 2.42288 7.20238 2.47401 7.20895 2.52429C7.21552 2.57458 7.23455 2.62242 7.26431 2.66349C7.43182 2.91481 7.5233 3.20911 7.52778 3.51111V3.81223Z" fill="#71717A"/>
</svg>
