<svg width="9" height="9" viewBox="0 0 9 9" fill="none" xmlns="http://www.w3.org/2000/svg">
<path fill-rule="evenodd" clip-rule="evenodd" d="M0.558895 3.99991C2.74127 2.85258 4.19653 2.09619 4.92467 1.73074C7.00367 0.687305 7.43566 0.506049 7.71723 0.500064C7.77916 0.498747 7.91763 0.517267 8.00732 0.605088C8.08306 0.679243 8.1039 0.779416 8.11387 0.849722C8.12384 0.920029 8.13626 1.08019 8.12639 1.20533C8.01372 2.63372 7.52624 6.10003 7.27824 7.69984C7.1733 8.37678 6.96667 8.60376 6.76662 8.62597C6.33189 8.67424 6.00177 8.27929 5.5807 7.94624C4.92182 7.42507 4.5496 7.10064 3.91004 6.59208C3.17092 6.00435 3.65006 5.68132 4.07128 5.15341C4.18152 5.01525 6.09698 2.91292 6.13405 2.72221C6.13869 2.69835 6.14299 2.60945 6.09922 2.5625C6.05545 2.51555 5.99084 2.53161 5.94422 2.54437C5.87814 2.56247 4.82556 3.40196 2.7865 5.06285C2.48773 5.31041 2.21712 5.43102 1.97465 5.4247C1.70736 5.41774 1.19319 5.24234 0.810958 5.09241C0.342135 4.90852 -0.0304765 4.81129 0.00196957 4.49899C0.0188695 4.33632 0.204511 4.16996 0.558895 3.99991Z" fill="#71717A"/>
</svg>
